<svg width="360" height="360" viewBox="0 0 360 360" fill="none" xmlns="http://www.w3.org/2000/svg">
<path d="M179.47 359.38L32.7058 323.455L0 0H359.38L326.64 323.404L179.47 359.38Z" fill="#264DE4"/>
<path d="M298.612 302.813L326.59 26.4492H179.691V331.884L298.612 302.813Z" fill="#2965F1"/>
<path d="M74.9785 146.414L79.0109 186.084H179.691V146.414H74.9785Z" fill="#EBEBEB"/>
<path d="M66.873 66.1172L70.9629 105.788H179.688V66.1172H179.533H66.873Z" fill="#EBEBEB"/>
<path d="M179.688 249.441L179.491 249.487L129.384 237.557L126.181 205.918H101.833H81.0176L87.3208 268.206L179.481 290.765L179.688 290.714V249.441Z" fill="#EBEBEB"/>
<path d="M284.117 146.411L292.239 66.1172H179.537V105.788H242.933L238.84 146.411H179.537V186.081H234.938L229.716 237.531L179.537 249.473V290.745L271.77 268.205L272.447 261.503L283.019 157.064L284.117 146.411Z" fill="white"/>
</svg>
