<svg width="360" height="360" viewBox="0 0 360 360" fill="none" xmlns="http://www.w3.org/2000/svg">
<path d="M183.985 17.668C267.673 19.2856 338.621 87.1292 341.316 175.488C338.387 175.488 334.414 175.488 333.62 175.488C331.59 132.709 315.48 96.1152 284.4 67.0678C256.234 40.7432 222.558 27.1055 183.907 25.5967C183.9 22.7607 183.942 20.2143 183.985 17.668Z" fill="#EB4429"/>
<path d="M17.6016 175.411C21.5841 109.214 53.1574 61.2371 112.704 32.0776C132.189 22.5355 153.451 18.1779 175.492 17.9414C175.492 20.7423 175.492 23.5431 175.492 25.9939C155.63 26.5239 136.279 30.1148 118.6 38.4278C60.675 65.6645 29.8603 111.527 25.494 175.478C22.65 175.488 20.1258 175.45 17.6016 175.411Z" fill="#EB4429"/>
<path d="M175.396 341.711C91.7074 340.093 20.4079 272.25 17.7129 183.891C20.5116 183.893 23.3104 183.89 25.7593 183.891C27.7281 226.423 43.6467 262.871 74.4216 291.885C102.682 318.529 136.546 332.292 175.473 333.783C175.48 336.619 175.438 339.165 175.396 341.711Z" fill="#EB4429"/>
<path d="M341.666 183.891C337.489 250.931 305.387 299.264 244.739 328.109C225.813 337.11 205.2 341.22 183.887 341.439C183.887 338.638 183.888 335.837 183.887 333.387C203.75 332.857 223.101 329.266 240.78 320.953C298.703 293.716 329.253 247.841 333.619 183.891C336.463 183.88 339.142 183.852 341.666 183.891Z" fill="#EB442A"/>
<path d="M342.121 183.932C339.254 183.933 336.73 183.894 333.564 183.874C324.585 183.911 316.247 183.929 307.574 183.923C304.709 183.898 302.179 183.897 299.301 183.883C294.207 183.866 289.461 183.842 284.714 183.865C281.937 183.879 279.901 182.953 279.682 179.864C279.488 177.124 281.3 175.573 284.71 175.534C289.688 175.476 294.666 175.497 299.94 175.483C302.795 175.466 305.355 175.45 308.231 175.455C316.886 175.459 325.224 175.442 333.563 175.426C336.099 175.446 338.635 175.466 341.475 175.447C345.848 175.446 349.917 175.456 353.985 175.529C357.385 175.59 359.384 177.169 359.381 179.695C359.377 182.219 357.379 183.799 353.975 183.849C350.139 183.906 346.301 183.882 342.121 183.932Z" fill="#7EC0D3"/>
<path d="M25.8132 183.956C23.2785 183.936 20.7439 183.916 17.905 183.935C13.5326 183.936 9.46397 183.926 5.39642 183.853C1.99618 183.792 -0.00251928 182.214 2.38324e-06 179.688C0.00252335 177.163 2.00024 175.583 5.40339 175.533C9.23983 175.476 13.0775 175.5 17.2577 175.449C20.1251 175.449 22.6493 175.488 25.8155 175.508C34.7934 175.471 43.1293 175.453 51.801 175.458C54.6682 175.483 57.1996 175.485 60.0783 175.499C65.1729 175.516 69.9203 175.539 74.6675 175.517C77.445 175.503 79.4813 176.43 79.6984 179.519C79.8909 182.26 78.0795 183.809 74.667 183.848C69.6888 183.905 64.7097 183.885 59.4365 183.898C56.583 183.915 54.0241 183.932 51.1492 183.927C42.4933 183.923 34.1532 183.939 25.8132 183.956Z" fill="#7EC0D3"/>
<path d="M175.424 25.8874C175.451 23.3364 175.477 20.7855 175.449 17.9523C175.438 13.4933 175.456 9.31616 175.532 5.14005C175.594 1.74392 177.204 -0.24409 179.848 0.0240886C182.812 0.324724 183.908 2.2671 183.872 5.11417C183.823 9.05948 183.888 13.0062 183.945 17.3113C183.943 20.2166 183.901 22.7629 183.875 25.9611C183.905 34.8918 183.919 43.1706 183.912 51.7788C183.897 54.6722 183.901 57.2362 183.888 60.1375C183.866 65.2325 183.848 69.9902 183.861 74.7477C183.869 77.5851 182.78 79.5809 179.699 79.5862C176.62 79.5916 175.519 77.6067 175.519 74.7651C175.521 69.7757 175.491 64.7863 175.479 59.4875C175.472 56.6017 175.46 54.0254 175.468 51.1278C175.466 42.5001 175.445 34.1937 175.424 25.8874Z" fill="#7EC0D3"/>
<path d="M183.958 333.491C183.931 336.041 183.904 338.591 183.932 341.423C183.945 345.882 183.926 350.06 183.85 354.236C183.788 357.634 182.18 359.622 179.536 359.355C176.572 359.056 175.474 357.114 175.51 354.266C175.559 350.321 175.494 346.373 175.438 342.068C175.439 339.163 175.481 336.617 175.507 333.419C175.477 324.488 175.463 316.209 175.47 307.601C175.485 304.708 175.481 302.145 175.494 299.245C175.516 294.149 175.534 289.391 175.521 284.634C175.513 281.797 176.6 279.799 179.681 279.793C182.76 279.787 183.863 281.771 183.863 284.613C183.861 289.602 183.891 294.592 183.903 299.891C183.91 302.776 183.922 305.352 183.914 308.249C183.915 316.877 183.937 325.184 183.958 333.491Z" fill="#7EC0D3"/>
<path d="M299.938 175.482C298.436 144.682 287.147 118.122 265.746 96.0131C246.252 75.8749 222.486 64.0266 194.637 60.5534C191.296 60.1367 187.597 59.8478 183.911 59.6028C183.911 57.1521 183.896 54.6707 183.911 51.7773C251.357 53.1166 305.668 108.716 307.732 175.489C305.283 175.489 302.793 175.465 299.938 175.482Z" fill="#96949A"/>
<path d="M183.902 299.891C244.946 298.47 297.654 247.532 299.686 183.891C302.484 183.859 304.708 183.897 307.573 183.922C306.519 219.342 292.851 249.304 267.222 273.521C246.894 292.728 222.561 303.985 194.663 307.167C191.315 307.549 187.573 307.577 183.889 307.828C183.902 305.027 183.909 302.776 183.902 299.891Z" fill="#96949A"/>
<path d="M59.4372 183.896C60.9822 216.798 73.6986 244.597 97.4402 267.214C116.207 285.091 138.65 295.591 164.41 298.802C167.862 299.233 171.696 299.172 175.493 299.426C175.493 302.227 175.484 304.709 175.469 307.601C108.02 306.261 53.3623 250.661 51.2988 183.891C53.7477 183.891 56.5837 183.913 59.4372 183.896Z" fill="#96949A"/>
<path d="M175.478 59.4887C114.326 60.9147 61.6914 111.989 59.6941 175.489C57.2452 175.489 54.668 175.483 51.8008 175.458C52.8325 139.751 66.6744 109.634 92.6315 85.3456C112.883 66.3957 137.064 55.3454 164.714 52.2075C168.063 51.8274 171.793 51.801 175.478 51.5508C175.478 54.0015 175.471 56.603 175.478 59.4887Z" fill="#96949A"/>
<path d="M136.524 154.726C139.965 149.33 143.034 143.984 146.736 139.12C148.407 136.925 148.96 135.254 148.428 132.567C146.731 123.988 138.748 114.432 127.662 113.687C126.623 113.618 125.601 113.326 124.564 113.186C122.025 112.843 120.247 111.48 120.527 108.867C120.812 106.201 122.85 104.782 125.495 104.936C138.912 105.716 150.053 113.073 155.197 126.262C155.741 127.658 156.206 129.085 156.865 130.942C172.04 123.228 187.16 123.137 202.418 130.918C202.97 129.489 203.453 128.341 203.86 127.168C208.243 114.55 219.011 105.941 233.616 104.927C236.353 104.737 238.908 106.592 238.899 108.94C238.888 111.781 237.069 113.017 234.382 113.215C226.164 113.822 219.297 116.948 214.634 124.028C213.679 125.479 212.832 127.038 212.18 128.647C210.401 133.031 209.838 136.711 214.125 140.761C220.317 146.611 223.673 154.439 225.213 162.915C225.418 164.042 225.772 165.142 226.049 166.223C232.692 165.544 238.428 158.923 239.125 151.346C239.473 147.565 241.028 145.785 243.674 146.137C246.349 146.492 247.751 148.773 247.434 152.254C246.508 162.416 239.082 171.657 229.212 174.346C226.459 175.096 225.738 176.289 225.867 178.918C226.066 182.968 225.92 187.036 225.92 191.626C229.566 191.626 232.897 191.624 236.227 191.626C238.442 191.628 240.659 191.58 242.871 191.655C245.422 191.743 247.256 193.054 247.337 195.633C247.425 198.414 245.565 199.868 242.856 199.929C238.661 200.024 234.463 199.963 230.267 199.967C229.002 199.969 227.737 199.967 225.779 199.967C225.779 205.085 225.681 209.941 225.895 214.784C225.924 215.432 227.446 216.314 228.414 216.575C239.507 219.562 245.115 227.372 247.332 238.091C248.128 241.938 246.571 244.57 243.755 244.885C240.754 245.221 239.42 243.877 239.148 240.243C238.624 233.252 233.848 226.973 227.668 224.926C224.853 223.994 223.253 224.27 221.718 227.411C214.038 243.13 201.56 252.21 183.918 254.031C163.517 256.137 145.033 244.323 137.402 226.904C136.237 224.246 134.73 224.117 132.501 224.67C126.348 226.196 120.821 233.006 120.253 239.773C119.909 243.882 118.781 245.167 115.755 244.896C112.955 244.647 111.384 242.153 112.041 238.557C114.072 227.446 119.847 219.569 131.195 216.474C132.138 216.217 133.465 215.013 133.505 214.193C133.731 209.667 133.614 205.124 133.614 199.967C128.522 199.967 123.802 199.97 119.081 199.967C114.112 199.964 111.92 198.659 111.969 195.74C112.016 192.863 114.183 191.628 119.196 191.626C123.735 191.624 128.274 191.626 133.418 191.626C133.418 186.484 133.495 181.528 133.323 176.58C133.3 175.947 132.069 175.031 131.243 174.8C120.28 171.741 114.379 164.205 112.154 153.391C111.923 152.269 111.84 151.048 112.014 149.924C112.38 147.56 113.855 146.077 116.292 146.146C118.738 146.216 120.12 147.724 120.222 150.186C120.441 155.488 122.454 159.966 126.573 163.279C128.398 164.747 130.667 165.662 132.967 166.959C134.241 162.524 135.326 158.749 136.524 154.726ZM150.308 147.211C149.324 149.021 147.563 150.798 147.485 152.646C147.033 163.34 150.985 172.442 159.439 178.927C174.761 190.679 194.809 188.123 205.923 172.377C213.526 161.607 215.946 151.193 204.265 142.332C203.709 141.91 203.161 141.476 202.594 141.069C185.705 128.953 165.355 131.209 150.308 147.211ZM141.781 201.045C141.782 203.262 141.777 205.479 141.784 207.696C141.84 224.324 150.883 237.652 166.374 243.661C169.107 244.721 172.074 245.175 175.142 245.962C175.341 244.686 175.505 244.128 175.505 243.569C175.52 227.931 175.492 212.293 175.554 196.656C175.562 194.548 174.71 193.932 172.722 193.62C163.007 192.097 154.989 187.404 148.731 179.868C146.29 176.929 144.312 173.605 141.781 169.965C141.781 180.516 141.781 190.43 141.781 201.045ZM211.067 229.601C215.494 223.043 217.693 215.848 217.623 207.893C217.52 196.35 217.602 184.805 217.588 173.261C217.587 172.318 217.449 171.374 217.318 169.717C216.47 171.23 216.027 172.026 215.579 172.82C209.41 183.774 200.292 190.955 187.936 193.359C184.414 194.044 183.753 195.281 183.789 198.491C183.946 212.831 183.857 227.175 183.857 241.517C183.857 242.765 183.857 244.013 183.857 245.801C195.489 244.278 204.18 238.968 211.067 229.601Z" fill="#7EC0D4"/>
</svg>
