<svg width="360" height="360" viewBox="0 0 360 360" fill="none" xmlns="http://www.w3.org/2000/svg">
<path d="M343.485 164.53L194.847 15.8982C186.288 7.33603 172.406 7.33603 163.84 15.8982L132.978 46.7678L172.128 85.918C181.227 82.8429 191.66 84.9065 198.911 92.1608C206.206 99.4596 208.251 109.982 205.098 119.114L242.837 156.849C251.969 153.7 262.499 155.738 269.79 163.04C279.979 173.229 279.979 189.738 269.79 199.934C259.594 210.126 243.085 210.126 232.885 199.934C225.223 192.265 223.327 181.002 227.213 171.562L192.016 136.368V228.981C194.498 230.211 196.844 231.849 198.911 233.916C209.1 244.104 209.1 260.614 198.911 270.813C188.722 280.998 172.202 280.998 162.021 270.813C151.832 260.61 151.832 244.101 162.021 233.916C164.54 231.4 167.456 229.496 170.568 228.221V134.746C167.456 133.471 164.548 131.585 162.021 129.051C154.303 121.337 152.447 110.008 156.404 100.53L117.81 61.9284L15.8864 163.84C7.32431 172.41 7.32431 186.292 15.8864 194.855L164.533 343.49C173.091 352.052 186.97 352.052 195.539 343.49L343.485 195.544C352.048 186.982 352.048 173.092 343.485 164.53Z" fill="#F05133"/>
</svg>
