<svg width="360" height="360" viewBox="0 0 360 360" fill="none" xmlns="http://www.w3.org/2000/svg">
<path d="M179.5 359C278.635 359 359 278.635 359 179.5C359 80.3649 278.635 0 179.5 0C80.3649 0 0 80.3649 0 179.5C0 278.635 80.3649 359 179.5 359Z" fill="#216287"/>
<path d="M179.5 340C268.142 340 340 268.142 340 179.5C340 90.8583 268.142 19 179.5 19C90.8583 19 19 90.8583 19 179.5C19 268.142 90.8583 340 179.5 340Z" fill="#E87912"/>
<path d="M230 250.939C230 289.982 202.355 322.563 165.673 330.102L160.753 331C85.4218 322.024 27 257.67 27 179.583C27 95.3035 95.0842 27 179.093 27C180.614 27 182.225 27 183.746 27.0898C152.432 38.1296 129.887 68.018 129.887 103.292C129.887 116.665 133.108 129.321 138.923 140.45C146.617 155.35 159.5 166.838 174.441 174.378L185.356 179.853C200.297 187.392 213.27 198.881 220.964 213.78C226.69 224.91 230 237.565 230 250.939Z" fill="#216287"/>
<path d="M179.5 19C90.8594 19 19 90.8594 19 179.5C19 256.816 73.677 321.328 146.464 336.558L146.571 337.12L147.989 336.861C158.18 338.894 168.711 340 179.5 340C268.141 340 340 268.141 340 179.5C340 90.8594 268.141 19 179.5 19ZM36.8333 179.5C36.8333 108.746 88.6659 50.0211 156.317 38.8931C137.672 54.6132 126 78.0818 126 103.708C126 117.253 129.272 130.717 135.47 142.656C143.182 157.529 156.121 169.861 172.893 178.287L183.762 183.753C198.84 191.35 210.432 202.336 217.28 215.532C222.897 226.357 225.742 238.074 225.742 250.37C225.742 282.871 204.788 311.511 174.819 321.917C98.3316 319.429 36.8333 256.585 36.8333 179.5ZM196.486 321.061C219.661 305.715 234.659 279.438 234.659 250.379C234.659 236.825 231.386 223.37 225.189 211.431C217.476 196.558 204.538 184.226 187.766 175.8L176.896 170.334C161.809 162.737 150.227 151.76 143.379 138.555C137.761 127.721 134.917 116.004 134.917 103.708C134.917 75.4158 150.797 50.0568 174.721 37.0741C176.317 37.0206 177.886 36.8333 179.5 36.8333C258.163 36.8333 322.167 100.837 322.167 179.5C322.167 252.412 267.16 312.626 196.486 321.061Z" fill="white"/>
<path d="M310.021 210.803C303.035 202.555 291.855 194.529 284.735 182.909C283.735 181.272 284.257 179.288 285.95 178.398C295.087 173.558 296.698 174.439 305.898 170.515C296.896 161.617 287.561 158.414 272.762 154.73C269.864 154.134 268.198 151.732 267.712 149.089C266.92 146.215 265.237 141.348 263.472 137.46C250.681 111.915 234.739 78.5135 202.386 76.0044C200.253 75.9777 198.218 75.1235 196.805 73.7177C192.727 69.8739 187.02 65.1137 181.772 64.3307C180.737 64.4286 181.259 64.0816 180.458 64.8112C178.361 67.2403 178.784 67.3292 180.224 70.4167C182.168 73.6999 185.877 77.4547 189.523 81.165C193.222 85.8896 190.657 92.8031 193.087 98.106C194.087 101.87 196.184 106.319 198.516 109.041C199.641 110.474 199.983 112.289 199.632 113.935C197.039 126.187 195.212 139.4 197.723 151.67C197.777 152.978 199.074 153.467 200.028 152.995C200.325 152.764 200.316 152.924 201.468 150.922C202.881 147.808 212.954 128.758 215.88 134.924C220.138 148.609 226.052 175.23 238.582 183.461C239.114 183.683 238.699 184.546 238.177 184.253C225.089 177.57 214.494 160.389 211.37 148.805C208.94 149.009 206.761 150.958 205.537 153.191C203.692 159.588 194.195 159.918 192.493 153.075C191.809 150.424 191.251 147.737 190.99 145.023C189.991 135.147 190.621 120.528 192.889 113.152C186.552 106.39 183.005 93.3369 183.843 86.5036C180.125 82.7844 176.218 79.1274 173.311 74.5452C167.837 67.6584 172.626 55.5755 182.015 56.0115C190.333 56.6966 197.066 62.3021 202.989 67.5873C209.552 67.0089 222.55 71.5378 229.833 76.4048C246.342 87.0018 255.029 105.197 264.463 121.587C268.144 129.025 274.743 141.606 274.572 147.603C291.369 152.746 310.354 158.966 319.931 174.705C320.102 175.017 319.94 175.417 319.589 175.515L293.484 183.612L310.777 210.305C311.074 210.75 310.354 211.301 310.021 210.803Z" fill="white"/>
<path d="M207 87.1072L213.902 97C213.902 97 221.782 85.7925 207 87.1072Z" fill="white"/>
<path d="M51.6663 144.203C58.632 152.524 69.7808 160.621 76.8811 172.344C77.8775 173.996 77.3569 175.997 75.6693 176.895C66.5582 181.769 64.9604 180.881 55.7865 184.848C64.7629 193.825 74.0715 197.056 88.8288 200.772C91.7192 201.374 93.3799 203.797 93.8646 206.463C94.6545 209.363 96.3331 214.273 98.0925 218.196C110.848 243.967 126.745 277.664 159.007 280.196C161.134 280.222 163.163 281.084 164.572 282.502C168.638 286.38 174.33 291.183 179.563 291.973C180.595 291.874 180.074 292.224 180.873 291.488C182.965 289.037 182.543 288.948 181.107 285.833C179.168 282.52 175.47 278.732 171.834 274.989C168.145 270.223 170.703 263.248 168.279 257.898C167.283 254.101 165.191 249.613 162.867 246.866C161.745 245.421 161.403 243.59 161.754 241.929C164.339 229.569 166.161 216.239 163.657 203.86C163.603 202.541 162.31 202.047 161.359 202.523C161.062 202.756 161.071 202.595 159.922 204.614C158.504 207.738 148.459 226.965 145.542 220.736C141.296 206.93 135.399 180.073 122.903 171.77C122.374 171.545 122.787 170.674 123.307 170.971C136.359 177.712 146.924 195.045 150.039 206.733C152.463 206.526 154.635 204.56 155.856 202.307C157.696 195.853 167.166 195.521 168.863 202.424C169.545 205.099 170.102 207.81 170.362 210.548C171.358 220.511 170.73 235.26 168.468 242.701C174.787 249.523 178.324 262.692 177.489 269.585C181.197 273.338 185.092 277.027 187.992 281.65C193.449 288.597 188.674 300.787 179.311 300.348C171.017 299.656 164.303 294.001 158.396 288.669C151.852 289.253 138.89 284.684 131.629 279.774C115.166 269.083 106.503 250.726 97.0961 234.191C93.4247 226.687 86.845 213.995 87.0155 207.944C70.2655 202.756 51.3341 196.482 41.7832 180.602C41.6126 180.288 41.7742 179.884 42.1243 179.785L68.156 171.617L50.9122 144.688C50.616 144.257 51.3341 143.709 51.6663 144.203Z" fill="white"/>
<path d="M154.106 268.439L146.629 257.766C146.629 257.766 138.092 269.866 154.106 268.439Z" fill="white"/>
</svg>
