<svg width="360" height="360" viewBox="0 0 360 360" fill="none" xmlns="http://www.w3.org/2000/svg">
<g clip-path="url(#clip0_416_59)">
<path d="M177.783 0.0029523C162.945 0.0713521 148.775 1.32681 136.307 3.5156C99.5767 9.95318 92.9079 23.4276 92.9079 48.2767V81.0948H179.705V92.0342H92.9079H60.3335C35.1077 92.0342 13.0193 107.076 6.11034 135.691C-1.85908 168.491 -2.21256 188.958 6.11034 223.206C12.2802 248.699 27.0147 266.863 52.2405 266.863H82.0835V227.522C82.0835 199.1 106.871 174.029 136.307 174.029H223.003C247.136 174.029 266.402 154.316 266.402 130.272V48.2767C266.402 24.9404 246.558 7.41033 223.003 3.5156C208.093 1.05321 192.622 -0.0654485 177.783 0.0029523ZM130.844 26.398C139.81 26.398 147.131 33.7802 147.131 42.8572C147.131 51.902 139.81 59.2161 130.844 59.2161C121.846 59.2161 114.557 51.902 114.557 42.8572C114.557 33.7802 121.846 26.398 130.844 26.398Z" fill="url(#paint0_linear_416_59)"/>
<path d="M277.624 90.7344V129.061C277.624 158.774 252.341 183.783 223.511 183.783H136.99C113.291 183.783 93.6797 203.994 93.6797 227.642V309.827C93.6797 333.217 114.093 346.975 136.99 353.686C164.41 361.719 190.703 363.171 223.511 353.686C245.318 347.395 266.821 334.734 266.821 309.827V276.933H180.301V265.968H266.821H310.132C335.306 265.968 344.687 248.472 353.442 222.21C362.486 195.174 362.101 169.175 353.442 134.493C347.221 109.521 335.338 90.7344 310.132 90.7344H277.624ZM228.962 298.862C237.942 298.862 245.216 306.193 245.216 315.259C245.216 324.357 237.942 331.756 228.962 331.756C220.015 331.756 212.708 324.357 212.708 315.259C212.708 306.193 220.015 298.862 228.962 298.862Z" fill="url(#paint1_linear_416_59)"/>
</g>
<defs>
<linearGradient id="paint0_linear_416_59" x1="-1.08085e-06" y1="-9.31469e-07" x2="198.805" y2="170.762" gradientUnits="userSpaceOnUse">
<stop stop-color="#5A9FD4"/>
<stop offset="1" stop-color="#306998"/>
</linearGradient>
<linearGradient id="paint1_linear_416_59" x1="226.881" y1="312.494" x2="155.564" y2="212.197" gradientUnits="userSpaceOnUse">
<stop stop-color="#FFD43B"/>
<stop offset="1" stop-color="#FFE873"/>
</linearGradient>
<clipPath id="clip0_416_59">
<rect width="359.38" height="359.38" fill="white"/>
</clipPath>
</defs>
</svg>
