<svg width="360" height="360" viewBox="0 0 360 360" fill="none" xmlns="http://www.w3.org/2000/svg">
<g clip-path="url(#clip0_417_63)">
<path d="M179.69 215.692C197.381 215.692 211.722 199.573 211.722 179.69C211.722 159.806 197.381 143.688 179.69 143.688C161.999 143.688 147.658 159.806 147.658 179.69C147.658 199.573 161.999 215.692 179.69 215.692Z" fill="#61DAFB"/>
<path d="M179.69 253.451C274.615 253.451 351.567 220.427 351.567 179.69C351.567 138.953 274.615 105.93 179.69 105.93C84.7646 105.93 7.8125 138.953 7.8125 179.69C7.8125 220.427 84.7646 253.451 179.69 253.451Z" stroke="#61DAFB" stroke-width="10"/>
<path d="M122.855 216.569C170.318 308.967 234.239 367.358 265.628 346.989C297.016 326.621 283.985 235.206 236.523 142.808C189.06 50.4109 125.139 -7.98035 93.7503 12.388C62.3619 32.7564 75.3926 124.171 122.855 216.569Z" stroke="#61DAFB" stroke-width="10"/>
<path d="M122.222 143.802C76.3772 237.012 64.9416 328.64 96.6802 348.459C128.419 368.277 191.313 308.781 237.158 215.57C283.003 122.359 294.439 30.731 262.7 10.9127C230.962 -8.90557 168.068 50.5908 122.222 143.802Z" stroke="#61DAFB" stroke-width="10"/>
</g>
<defs>
<clipPath id="clip0_417_63">
<rect width="359.38" height="359.38" fill="white"/>
</clipPath>
</defs>
</svg>
