<svg width="360" height="360" viewBox="0 0 360 360" fill="none" xmlns="http://www.w3.org/2000/svg">
<path d="M359.38 0L326.64 323.404L179.47 359.38L32.7058 323.455L0 0H359.38Z" fill="#E44D26"/>
<path d="M179.689 331.884L298.61 302.813L326.588 26.4492H179.689V331.884Z" fill="#F16529"/>
<path d="M116.042 105.788H179.688V66.1172H179.533H66.873L67.95 76.7602L79.0078 186.081H179.688V146.411H120.154L116.042 105.788Z" fill="#EBEBEB"/>
<path d="M126.181 205.918H101.833H81.0176L87.3208 268.206L179.481 290.765L179.688 290.714V249.441L179.491 249.487L129.384 237.557L126.181 205.918Z" fill="#EBEBEB"/>
<path d="M179.537 186.084H234.938L229.716 237.534L179.537 249.476V290.748L271.77 268.208L272.447 261.506L283.019 157.067L284.117 146.414H271.993H179.537V186.084Z" fill="white"/>
<path d="M179.537 105.691V105.788H288.066H288.211L289.113 96.8713L291.163 76.7602L292.239 66.1172H179.537V90.7561V105.691Z" fill="white"/>
</svg>
