<svg width="360" height="360" viewBox="0 0 360 360" fill="none" xmlns="http://www.w3.org/2000/svg">
<path d="M160.738 -4.44644e-06C172.686 -4.07502e-06 184.633 -4.37527e-06 196.843 0.292847C199.966 1.04493 202.827 1.50415 205.953 2.13495C206.276 3.70308 206.387 5.09964 206.387 6.49622C206.396 53.8532 206.395 101.21 206.395 148.567C206.395 149.934 206.395 151.301 206.395 152.967C208.019 152.967 209.277 152.967 210.535 152.967C247.836 152.967 285.137 152.975 322.438 152.962C334.247 152.958 346.055 152.9 357.908 153.176C358.427 154.968 358.904 156.449 359.38 157.931C359.38 172.452 359.38 186.972 359.095 201.742C358.494 203.461 358.178 204.93 357.541 206.395C306.993 206.391 256.766 206.391 206.395 206.391C206.395 208.174 206.395 209.452 206.395 210.729C206.395 258.325 206.4 305.921 206.365 353.517C206.365 354.819 205.927 356.121 205.433 357.451C204.166 358.112 203.159 358.746 202.151 359.38C187.396 359.38 172.642 359.38 157.635 359.092C155.896 358.492 154.409 358.18 152.937 357.546C152.953 307.024 152.953 256.824 152.953 206.427C102.206 206.427 51.8638 206.427 1.47576 206.13C0.953349 204.606 0.476677 203.379 5.59203e-06 202.151C6.5877e-06 187.396 6.2191e-06 172.642 0.286984 157.636C0.889835 155.903 1.20571 154.42 1.84254 152.945C52.3755 152.953 102.588 152.953 152.985 152.953C152.985 151.092 152.985 149.701 152.985 148.31C152.985 102.135 152.983 55.9606 152.99 9.78603C152.99 7.21711 153.064 4.64819 153.396 2.08944C155.711 1.85408 157.747 1.67329 159.748 1.30795C160.145 1.2356 160.412 0.454339 160.738 -4.44644e-06Z" fill="#C8102E"/>
<path d="M1.8418 152.945C2.84558 146.838 4.17031 140.74 5.74305 134.461C5.99106 134.28 6.10912 134.203 6.44906 134.244C28.0835 134.285 49.3781 134.285 71.5786 134.285C70.1902 133.063 69.542 132.464 68.8648 131.9C55.7676 120.995 42.6791 110.078 29.5566 99.2031C27.0595 97.1336 24.4253 95.2294 21.8544 93.2489C26.0736 86.6075 30.2928 79.9661 34.8162 73.4148C56.9676 91.6768 78.9741 109.663 100.549 128.152C105.904 132.741 111.121 135.067 118.116 134.394C123.398 133.885 128.768 134.293 133.78 134.293C135.393 128.663 133.484 125.291 129.357 121.905C102.603 99.9543 76.0969 77.7022 49.5095 55.5489C55.3272 50.1521 61.1449 44.7553 67.3749 39.3789C85.6424 54.3088 103.495 69.221 121.354 84.1257C125.434 87.5305 129.536 90.9093 134.037 94.6395C134.172 93.6095 134.275 93.1931 134.275 92.7768C134.254 63.888 134.225 34.9992 134.236 6.05116C134.274 5.99199 134.217 5.86282 134.217 5.86282C137.916 4.84414 141.592 3.72779 145.323 2.84136C147.784 2.25667 150.323 2.00273 152.966 1.83984C153.064 4.6479 152.989 7.21682 152.989 9.78574C152.982 55.9603 152.984 102.135 152.984 148.309C152.984 149.701 152.984 151.092 152.984 152.953C102.587 152.953 52.3748 152.953 1.8418 152.945Z" fill="#FEFDFE"/>
<path d="M205.951 2.13281C208.253 2.24164 210.853 2.35046 213.378 2.84251C217.192 3.58565 220.954 4.59608 224.918 5.74285C225.098 5.99278 225.179 6.11429 225.141 6.45402C225.102 36.3751 225.102 65.9565 225.102 95.8857C225.957 95.4792 226.291 95.3943 226.531 95.1956C248.111 77.3235 269.689 59.4481 291.236 41.5356C291.867 41.0109 292.168 40.0888 292.623 39.3521C298.461 44.802 304.298 50.252 309.925 56.0245C282.773 78.7669 255.919 101.292 228.796 123.489C224.874 126.7 224.776 129.946 225.376 134.232C233.89 134.232 242.174 134.279 250.455 134.172C251.486 134.158 252.677 133.53 253.507 132.841C277.339 113.085 301.133 93.2846 324.934 73.4912C329.166 80.1823 333.398 86.8733 337.495 93.9478C321.588 107.437 305.815 120.542 289.366 134.209C311.415 134.209 332.537 134.209 353.659 134.209C354.974 140.268 356.288 146.326 357.733 152.625C346.054 152.898 334.245 152.956 322.436 152.96C285.135 152.972 247.834 152.965 210.533 152.965C209.276 152.965 208.018 152.965 206.393 152.965C206.393 151.299 206.393 149.932 206.393 148.565C206.393 101.208 206.395 53.8511 206.386 6.49409C206.385 5.09751 206.275 3.70095 205.951 2.13281Z" fill="#FEFDFD"/>
<path d="M34.9036 286.314C31.9077 282.015 28.8558 277.754 25.9392 273.401C24.4503 271.18 23.2041 268.795 21.8372 266.02C37.6875 252.25 53.5487 238.944 69.9478 225.187C47.9957 225.187 26.8552 225.187 5.71479 225.187C4.51178 219.759 3.30824 214.331 2.10643 208.903C1.96323 208.256 1.82942 207.607 1.60742 206.693C51.8659 206.426 102.208 206.426 152.955 206.426C152.955 256.823 152.955 307.023 152.939 357.545C147.213 356.731 141.501 355.604 135.795 354.448C135.389 354.365 135.025 354.075 134.462 353.633C134.281 353.385 134.202 353.266 134.24 352.926C134.278 323.008 134.278 293.431 134.278 263.532C133.381 263.953 133.143 264.011 132.973 264.151C111.37 282.048 89.7676 299.946 68.1942 317.878C67.5595 318.406 67.2339 319.305 66.7642 320.031C61.119 314.768 55.4739 309.505 49.8122 303.834C76.6801 281.072 103.471 258.604 130.547 236.486C134.755 233.05 134.563 229.53 133.932 225.086C126.134 225.086 118.537 224.977 110.947 225.171C109.263 225.214 107.288 225.941 105.984 227.008C92.5959 237.975 79.2988 249.053 66.0164 260.147C55.6162 268.835 45.2725 277.59 34.9036 286.314Z" fill="#FEFDFE"/>
<path d="M225.15 353.658C220.192 354.864 215.241 356.1 210.272 357.257C208.869 357.583 207.413 357.676 205.836 357.65C205.925 356.121 206.362 354.819 206.363 353.517C206.398 305.921 206.393 258.325 206.393 210.729C206.393 209.452 206.393 208.174 206.393 206.391C256.764 206.391 306.991 206.391 357.539 206.395C356.629 212.455 355.399 218.51 353.644 224.839C332.617 225.132 312.116 225.153 291.467 225.281C291.523 225.612 291.726 225.836 292.118 226.198C297.4 230.581 302.476 234.847 307.59 239.066C317.904 247.577 328.238 256.062 338.563 264.558C334.166 271.588 329.77 278.618 324.948 285.645C300.729 265.795 276.936 245.945 253.122 226.121C252.531 225.63 251.694 225.153 250.968 225.148C242.462 225.08 233.955 225.104 225.376 225.104C224.665 229.61 225.04 232.913 228.954 235.995C240.803 245.324 252.217 255.204 263.831 264.832C279.308 277.662 294.814 290.457 310.307 303.267C304.676 308.533 299.045 313.798 293.172 318.769C292.512 318.073 292.115 317.646 291.671 317.276C270.212 299.406 248.75 281.539 227.276 263.688C226.727 263.231 226.035 262.946 225.15 262.429C225.15 293.118 225.15 323.388 225.15 353.658Z" fill="#FEFDFE"/>
<path d="M292.389 39.2951C292.167 40.0925 291.867 41.0146 291.236 41.5392C269.689 59.4517 248.111 77.3271 226.53 95.1993C226.29 95.3979 225.956 95.4828 225.102 95.8894C225.102 65.9601 225.102 36.3787 225.407 6.44978C226.244 6.13843 226.776 6.17466 227.308 6.2109C233.899 8.56079 240.553 10.7499 247.067 13.2983C256.825 17.1161 266.256 21.6381 274.972 27.5241C280.716 31.4035 286.429 35.3294 292.389 39.2951Z" fill="#02226A"/>
<path d="M324.85 73.2846C301.135 93.284 277.34 113.085 253.509 132.841C252.678 133.529 251.488 134.158 250.457 134.171C242.175 134.279 233.892 134.231 225.377 134.231C224.777 129.945 224.875 126.699 228.798 123.489C255.92 101.292 282.774 78.7663 309.925 56.2617C315.013 61.8109 319.889 67.4448 324.85 73.2846Z" fill="#C81230"/>
<path d="M353.725 133.932C332.54 134.211 311.418 134.211 289.369 134.211C305.818 120.544 321.591 107.438 337.568 94.207C341.909 103.432 346.161 112.735 350.125 122.159C351.678 125.851 352.585 129.814 353.725 133.932Z" fill="#02226A"/>
<path d="M227.195 5.99581C226.778 6.17039 226.247 6.13416 225.448 6.10578C225.181 6.11363 225.099 5.99213 225.129 5.92503C225.798 5.83363 226.439 5.80931 227.195 5.99581Z" fill="#99A7C3"/>
<path d="M134.195 6.10937C134.224 34.9982 134.252 63.887 134.273 92.7759C134.273 93.1922 134.17 93.6086 134.035 94.6386C129.534 90.9084 125.433 87.5295 121.353 84.1247C103.494 69.22 85.6408 54.3078 67.5918 39.2548C86.5779 23.949 107.859 12.9161 132.014 6.37834C133.092 6.21283 133.644 6.1611 134.195 6.10937Z" fill="#022269"/>
<path d="M49.3197 55.6406C76.0971 77.7027 102.603 99.9548 129.357 121.905C133.484 125.291 135.393 128.664 133.781 134.293C128.769 134.293 123.399 133.885 118.117 134.394C111.122 135.067 105.904 132.742 100.549 128.153C78.9744 109.663 56.9679 91.6772 35.0078 73.2881C36.8935 70.2827 38.7465 67.3739 40.9285 64.7373C43.5142 61.613 46.3834 58.7233 49.3197 55.6406Z" fill="#C81230"/>
<path d="M21.726 93.4766C24.426 95.2267 27.0601 97.1309 29.5573 99.2004C42.6798 110.076 55.7683 120.992 68.8655 131.898C69.5426 132.462 70.1909 133.06 71.5793 134.282C49.3788 134.282 28.0842 134.282 6.45312 133.962C6.17333 133.087 6.2301 132.532 6.28686 131.977C9.17742 123.867 11.8979 115.691 15.0225 107.672C16.8862 102.889 19.3841 98.3536 21.726 93.4766Z" fill="#02226A"/>
<path d="M6.05166 132.082C6.23032 132.535 6.17356 133.09 6.11341 133.924C6.11003 134.204 5.99198 134.28 5.92725 134.253C5.84709 133.545 5.83166 132.864 6.05166 132.082Z" fill="#98A5C2"/>
<path d="M134.232 6.05365C133.642 6.16454 133.091 6.21627 132.262 6.27009C132.557 6.11176 133.131 5.95135 133.959 5.82812C134.214 5.86531 134.271 5.99448 134.232 6.05365Z" fill="#9AA7C3"/>
<path d="M66.9492 320.164C67.2258 319.309 67.5514 318.409 68.1861 317.882C89.7595 299.949 111.362 282.052 132.965 264.155C133.135 264.014 133.373 263.956 134.27 263.535C134.27 293.435 134.27 323.012 133.956 352.93C133.094 353.221 132.545 353.17 131.997 353.119C124.325 350.553 116.526 348.314 109.011 345.351C95.7961 340.142 83.7574 332.749 72.3467 324.327C70.5813 323.024 68.8757 321.641 66.9492 320.164Z" fill="#022269"/>
<path d="M34.9863 286.557C45.2746 277.588 55.6184 268.834 66.0186 260.146C79.301 249.052 92.5981 237.974 105.986 227.007C107.29 225.939 109.265 225.213 110.949 225.17C118.539 224.976 126.136 225.085 133.934 225.085C134.565 229.529 134.757 233.049 130.549 236.485C103.473 258.603 76.6823 281.071 49.6665 303.631C44.7125 298.158 39.8897 292.48 34.9863 286.557Z" fill="#C81230"/>
<path d="M5.64844 225.456C26.8524 225.187 47.9929 225.187 69.945 225.187C53.5459 238.944 37.6847 252.25 21.7404 265.781C18.5167 259.388 15.0438 252.902 12.3303 246.112C9.67864 239.478 7.80184 232.534 5.64844 225.456Z" fill="#02226A"/>
<path d="M132.107 353.347C132.551 353.169 133.099 353.22 133.924 353.27C134.199 353.269 134.278 353.388 134.25 353.453C133.552 353.538 132.882 353.556 132.107 353.347Z" fill="#9AA7C3"/>
<path d="M225.436 353.691C225.15 323.389 225.15 293.119 225.15 262.43C226.036 262.947 226.728 263.232 227.277 263.688C248.751 281.54 270.212 299.407 291.671 317.277C292.116 317.647 292.513 318.074 292.957 318.711C289.435 321.88 286.071 325.073 282.311 327.7C266.199 338.958 248.717 347.401 229.729 352.628C228.394 352.995 227.057 353.358 225.436 353.691Z" fill="#022269"/>
<path d="M310.535 303.188C294.819 290.458 279.314 277.663 263.837 264.833C252.223 255.205 240.808 245.326 228.959 235.997C225.045 232.915 224.67 229.611 225.381 225.106C233.961 225.106 242.467 225.082 250.973 225.149C251.699 225.155 252.536 225.631 253.127 226.123C276.942 245.946 300.734 265.797 324.731 285.775C320.208 291.639 315.482 297.374 310.535 303.188Z" fill="#C81230"/>
<path d="M291.617 225.172C312.119 225.151 332.621 225.13 353.428 225.035C353.761 225.199 353.787 225.437 353.581 225.942C353.267 226.598 353.187 226.986 353.106 227.374C350.39 235.366 347.831 243.416 344.894 251.327C343.242 255.777 340.964 259.996 338.767 264.437C328.241 256.06 317.907 247.575 307.593 239.064C302.48 234.845 297.403 230.579 292.044 225.974C291.724 225.466 291.671 225.319 291.617 225.172Z" fill="#02226A"/>
<path d="M353.305 227.317C353.184 226.989 353.265 226.601 353.524 226.121C353.637 226.438 353.572 226.847 353.305 227.317Z" fill="#97A4C2"/>
<path d="M291.471 225.281C291.671 225.321 291.724 225.469 291.855 225.838C291.729 225.836 291.527 225.612 291.471 225.281Z" fill="#97A4C2"/>
</svg>
