<svg width="360" height="360" viewBox="0 0 360 360" fill="none" xmlns="http://www.w3.org/2000/svg">
<g clip-path="url(#clip0_415_50)">
<path d="M0 179.69V0H179.69H359.38V179.69V359.38H179.69H0V179.69ZM157.325 329.758C178.937 326.023 191.953 312.204 194.845 289.922C195.136 287.681 195.346 261.121 195.355 225.319L195.371 164.523H178.662H161.952L161.943 221.978C161.938 256.366 161.729 281.379 161.424 284.282C160.411 293.898 156.816 298.577 149.202 300.191C138.418 302.477 130.387 298.15 123.794 286.501C122.953 285.017 122.023 283.802 121.726 283.802C121.24 283.802 95.9695 298.857 94.9447 299.757C93.8759 300.696 100.276 310.486 105.265 315.543C117.517 327.964 136.971 333.276 157.325 329.758ZM286.63 330.023C300.372 328.291 311.573 322.982 319.784 314.308C323.148 310.754 324.412 308.932 326.446 304.703C329.786 297.758 330.613 294.245 330.944 285.602C331.542 269.958 327.408 258.893 317.39 249.323C310.209 242.463 301.155 237.165 284.059 229.816C266.526 222.28 261.132 218.834 258.562 213.525C256.778 209.838 256.87 204.265 258.78 200.375C261.61 194.613 267.071 191.952 275.123 192.411C282.796 192.848 288.146 196.084 292.818 203.111L295.148 206.616L306.922 199.066C313.397 194.913 319.288 191.052 320.013 190.487L321.33 189.459L318.427 185.156C311.15 174.369 301.519 167.521 289.352 164.481C283.206 162.947 269.416 162.549 262.723 163.714C251.696 165.634 243.891 169.501 236.707 176.605C230.205 183.036 226.69 189.472 224.868 198.28C223.585 204.484 224.102 216.261 225.923 222.338C230.581 237.875 241.045 247.886 262.549 257.379C266.745 259.232 273.297 262.127 277.11 263.813C292.471 270.607 297.337 275.477 297.337 284.059C297.337 291.999 292.28 297.525 282.737 300.012C277.626 301.344 267.878 300.873 262.526 299.036C255.231 296.533 248.244 290.9 243.442 283.652C242.058 281.563 241.233 280.765 240.679 280.977C239.085 281.589 213.88 296.356 213.88 296.678C213.88 297.857 221.641 308.401 224.978 311.755C239.772 326.627 261.796 333.153 286.63 330.023Z" fill="#EED94D"/>
<path d="M139.073 330.513C125.877 329.543 113.798 324.195 105.265 315.543C100.275 310.486 93.8756 300.696 94.9444 299.757C95.9691 298.857 121.239 283.802 121.726 283.802C122.023 283.802 122.953 285.017 123.793 286.502C130.387 298.15 138.418 302.477 149.202 300.191C156.816 298.578 160.411 293.898 161.423 284.283C161.729 281.38 161.938 256.366 161.943 221.978L161.952 164.523H178.661H195.371L195.355 225.32C195.346 261.121 195.136 287.681 194.845 289.923C191.187 318.102 170.918 332.854 139.073 330.513ZM268.857 330.55C246.254 328.978 228.628 319.319 217.416 302.361C215.471 299.419 213.88 296.862 213.88 296.678C213.88 296.356 239.085 281.589 240.679 280.978C241.233 280.765 242.058 281.563 243.442 283.652C248.244 290.9 255.231 296.533 262.525 299.036C267.878 300.873 277.626 301.344 282.737 300.012C292.279 297.525 297.336 292 297.336 284.06C297.336 275.477 292.471 270.607 277.109 263.813C273.297 262.127 266.745 259.232 262.549 257.38C241.045 247.886 230.58 237.875 225.923 222.338C224.101 216.261 223.585 204.484 224.868 198.28C226.689 189.472 230.205 183.036 236.707 176.605C243.89 169.501 251.695 165.634 262.722 163.715C269.416 162.549 283.206 162.947 289.351 164.482C301.519 167.521 311.15 174.369 318.427 185.156L321.33 189.459L320.012 190.487C319.288 191.053 313.397 194.913 306.921 199.066L295.148 206.616L292.818 203.111C288.146 196.084 282.796 192.849 275.123 192.411C267.07 191.952 261.609 194.613 258.78 200.376C257.55 202.881 257.331 203.945 257.368 207.244C257.472 216.567 261.853 220.272 284.059 229.816C301.155 237.165 310.209 242.464 317.39 249.324C327.408 258.894 331.542 269.958 330.943 285.602C330.613 294.245 329.786 297.758 326.446 304.703C317.828 322.621 295.963 332.435 268.857 330.55Z" fill="#31322F"/>
</g>
<defs>
<clipPath id="clip0_415_50">
<rect width="359.38" height="359.38" fill="white"/>
</clipPath>
</defs>
</svg>
