<svg width="360" height="360" viewBox="0 0 360 360" fill="none" xmlns="http://www.w3.org/2000/svg">
<g clip-path="url(#clip0_419_96)">
<path d="M359.38 0H0V359.38H359.38V0Z" fill="#512BD4"/>
<path d="M64.0522 229.606C61.5111 229.606 59.3512 228.759 57.5725 227.065C55.7937 225.328 54.9043 223.266 54.9043 220.878C54.9043 218.446 55.7937 216.362 57.5725 214.625C59.3512 212.888 61.5111 212.02 64.0522 212.02C66.6356 212.02 68.8167 212.888 70.5955 214.625C72.4166 216.362 73.3272 218.446 73.3272 220.878C73.3272 223.266 72.4166 225.328 70.5955 227.065C68.8167 228.759 66.6356 229.606 64.0522 229.606Z" fill="white"/>
<path d="M165.636 228.169H149.119L105.603 159.517C104.502 157.78 103.591 155.978 102.871 154.111H102.49C102.829 156.109 102.998 160.386 102.998 166.942V228.169H88.3867V134.766H105.984L148.039 201.789C149.818 204.569 150.961 206.479 151.47 207.521H151.724C151.3 205.046 151.088 200.856 151.088 194.95V134.766H165.636V228.169Z" fill="white"/>
<path d="M236.788 228.169H185.648V134.766H234.755V147.923H200.768V174.368H232.087V187.46H200.768V215.077H236.788V228.169Z" fill="white"/>
<path d="M309.467 147.923H283.294V228.169H268.174V147.923H242.064V134.766H309.467V147.923Z" fill="white"/>
</g>
<defs>
<clipPath id="clip0_419_96">
<rect width="359.38" height="359.38" fill="white"/>
</clipPath>
</defs>
</svg>
